<mxfile host="65bd71144e">
    <diagram id="mdiVWV2WWCev4y58goMk" name="personal_infp">
        <mxGraphModel dx="1982" dy="782" grid="1" gridSize="10" guides="1" tooltips="1" connect="1" arrows="1" fold="1" page="1" pageScale="1" pageWidth="850" pageHeight="1100" math="0" shadow="0">
            <root>
                <mxCell id="0"/>
                <mxCell id="1" parent="0"/>
                <mxCell id="we4FRvv5bvfm9Uuk6S1M-13" value="Login" style="ellipse;whiteSpace=wrap;html=1;" parent="1" vertex="1">
                    <mxGeometry x="240" y="370" width="120" height="80" as="geometry"/>
                </mxCell>
                <mxCell id="BxZzEg3cyN8tRdAY7CEt-1" value="Register" style="ellipse;whiteSpace=wrap;html=1;" parent="1" vertex="1">
                    <mxGeometry x="240" y="510" width="120" height="80" as="geometry"/>
                </mxCell>
                <mxCell id="BxZzEg3cyN8tRdAY7CEt-2" value="Settings" style="ellipse;whiteSpace=wrap;html=1;" parent="1" vertex="1">
                    <mxGeometry x="240" y="640" width="120" height="80" as="geometry"/>
                </mxCell>
                <mxCell id="vrcWFrz8zOzpY22sKMQk-1" value="User" style="shape=umlActor;verticalLabelPosition=bottom;verticalAlign=top;html=1;" parent="1" vertex="1">
                    <mxGeometry x="40" y="520" width="40" height="60" as="geometry"/>
                </mxCell>
                <mxCell id="BxZzEg3cyN8tRdAY7CEt-3" value="Login by google" style="ellipse;whiteSpace=wrap;html=1;" parent="1" vertex="1">
                    <mxGeometry x="460" y="320" width="120" height="80" as="geometry"/>
                </mxCell>
                <mxCell id="5" value="" style="line;strokeWidth=1;fillColor=none;align=left;verticalAlign=middle;spacingTop=-1;spacingLeft=3;spacingRight=3;rotatable=0;labelPosition=right;points=[];portConstraint=eastwest;" parent="1" vertex="1">
                    <mxGeometry x="80" y="546" width="160" height="8" as="geometry"/>
                </mxCell>
                <mxCell id="Bo7_ADkmP-pmxNT8sIas-7" value="" style="endArrow=none;html=1;" parent="1" edge="1">
                    <mxGeometry width="50" height="50" relative="1" as="geometry">
                        <mxPoint x="80" y="550" as="sourcePoint"/>
                        <mxPoint x="240" y="410" as="targetPoint"/>
                    </mxGeometry>
                </mxCell>
                <mxCell id="JoJUP3-gIeSrfUZX02Za-7" value="" style="endArrow=none;html=1;entryX=0;entryY=0.5;entryDx=0;entryDy=0;exitX=0;exitY=0.5;exitDx=0;exitDy=0;exitPerimeter=0;" parent="1" source="5" target="BxZzEg3cyN8tRdAY7CEt-2" edge="1">
                    <mxGeometry width="50" height="50" relative="1" as="geometry">
                        <mxPoint x="370" y="620" as="sourcePoint"/>
                        <mxPoint x="590" y="540" as="targetPoint"/>
                    </mxGeometry>
                </mxCell>
                <mxCell id="4YBvwkj-m71-DrNPv-mg-7" value="Set target" style="ellipse;whiteSpace=wrap;html=1;" parent="1" vertex="1">
                    <mxGeometry x="240" y="900" width="120" height="80" as="geometry"/>
                </mxCell>
                <mxCell id="4YBvwkj-m71-DrNPv-mg-8" value="Send notification" style="ellipse;whiteSpace=wrap;html=1;" parent="1" vertex="1">
                    <mxGeometry x="410" y="900" width="120" height="80" as="geometry"/>
                </mxCell>
                <mxCell id="4YBvwkj-m71-DrNPv-mg-9" value="Feedback" style="ellipse;whiteSpace=wrap;html=1;" parent="1" vertex="1">
                    <mxGeometry x="-210" y="670" width="120" height="80" as="geometry"/>
                </mxCell>
                <mxCell id="W-CkjPZS05xuV5A50rFM-9" value="Forgot Password ?" style="ellipse;whiteSpace=wrap;html=1;" parent="1" vertex="1">
                    <mxGeometry x="460" y="410" width="120" height="80" as="geometry"/>
                </mxCell>
                <mxCell id="OGuPIggtdaK7NZoLa84z-11" value="Setting Profile" style="ellipse;whiteSpace=wrap;html=1;" parent="1" vertex="1">
                    <mxGeometry x="440" y="590" width="120" height="80" as="geometry"/>
                </mxCell>
                <mxCell id="OGuPIggtdaK7NZoLa84z-12" value="Interface Customization" style="ellipse;whiteSpace=wrap;html=1;" parent="1" vertex="1">
                    <mxGeometry x="440" y="690" width="120" height="80" as="geometry"/>
                </mxCell>
                <mxCell id="ngORwRmPN3Fzp4jk9VS9-21" value="&amp;lt;&amp;lt;Include&amp;gt;&amp;gt;" style="edgeStyle=none;html=1;dashed=1;" parent="1" edge="1">
                    <mxGeometry relative="1" as="geometry">
                        <mxPoint x="-47.570249345861164" y="319.99506233646537" as="sourcePoint"/>
                        <mxPoint x="39.997584221684285" y="297.95507127147823" as="targetPoint"/>
                    </mxGeometry>
                </mxCell>
                <mxCell id="DAwid6gGbhJltw84j3KQ-13" value="&amp;lt;&amp;lt;Extends&amp;gt;&amp;gt;" style="edgeStyle=none;html=1;dashed=1;entryX=1;entryY=0.5;entryDx=0;entryDy=0;exitX=0;exitY=0.5;exitDx=0;exitDy=0;" parent="1" edge="1">
                    <mxGeometry relative="1" as="geometry">
                        <mxPoint x="250" y="220" as="sourcePoint"/>
                        <mxPoint x="150" y="180" as="targetPoint"/>
                    </mxGeometry>
                </mxCell>
                <mxCell id="DAwid6gGbhJltw84j3KQ-14" value="&amp;lt;&amp;lt;Extends&amp;gt;&amp;gt;" style="edgeStyle=none;html=1;dashed=1;exitX=0;exitY=0.5;exitDx=0;exitDy=0;" parent="1" edge="1">
                    <mxGeometry relative="1" as="geometry">
                        <mxPoint x="440" y="730" as="sourcePoint"/>
                        <mxPoint x="360" y="680" as="targetPoint"/>
                    </mxGeometry>
                </mxCell>
                <mxCell id="DAwid6gGbhJltw84j3KQ-15" value="&amp;lt;&amp;lt;Extends&amp;gt;&amp;gt;" style="edgeStyle=none;html=1;dashed=1;exitX=0;exitY=0.5;exitDx=0;exitDy=0;entryX=1;entryY=0.5;entryDx=0;entryDy=0;" parent="1" target="BxZzEg3cyN8tRdAY7CEt-2" edge="1">
                    <mxGeometry relative="1" as="geometry">
                        <mxPoint x="439.04" y="624.64" as="sourcePoint"/>
                        <mxPoint x="360.00000000000006" y="589.9999999999999" as="targetPoint"/>
                        <Array as="points">
                            <mxPoint x="420" y="640"/>
                        </Array>
                    </mxGeometry>
                </mxCell>
                <mxCell id="DAwid6gGbhJltw84j3KQ-18" value="&amp;lt;&amp;lt;Extends&amp;gt;&amp;gt;" style="edgeStyle=none;html=1;dashed=1;exitX=0;exitY=0.5;exitDx=0;exitDy=0;" parent="1" source="W-CkjPZS05xuV5A50rFM-9" edge="1">
                    <mxGeometry relative="1" as="geometry">
                        <mxPoint x="440" y="460" as="sourcePoint"/>
                        <mxPoint x="360" y="410" as="targetPoint"/>
                    </mxGeometry>
                </mxCell>
                <mxCell id="DAwid6gGbhJltw84j3KQ-19" value="&amp;lt;&amp;lt;Extends&amp;gt;&amp;gt;" style="edgeStyle=none;html=1;dashed=1;exitX=0;exitY=0.5;exitDx=0;exitDy=0;entryX=1;entryY=0.5;entryDx=0;entryDy=0;" parent="1" target="we4FRvv5bvfm9Uuk6S1M-13" edge="1">
                    <mxGeometry relative="1" as="geometry">
                        <mxPoint x="460" y="360" as="sourcePoint"/>
                        <mxPoint x="360" y="320" as="targetPoint"/>
                    </mxGeometry>
                </mxCell>
                <mxCell id="DAwid6gGbhJltw84j3KQ-20" value="" style="endArrow=none;html=1;entryX=1.002;entryY=0.359;entryDx=0;entryDy=0;entryPerimeter=0;" parent="1" target="4YBvwkj-m71-DrNPv-mg-9" edge="1">
                    <mxGeometry width="50" height="50" relative="1" as="geometry">
                        <mxPoint x="40" y="590" as="sourcePoint"/>
                        <mxPoint x="20.00000000001046" y="710" as="targetPoint"/>
                    </mxGeometry>
                </mxCell>
                <mxCell id="ndpYZZ0jixflUJs3U8E0-5" value="Delete Account" style="ellipse;whiteSpace=wrap;html=1;" parent="1" vertex="1">
                    <mxGeometry x="-210" y="380" width="110" height="80" as="geometry"/>
                </mxCell>
                <mxCell id="ndpYZZ0jixflUJs3U8E0-8" value="" style="endArrow=none;html=1;entryX=1.002;entryY=0.359;entryDx=0;entryDy=0;entryPerimeter=0;exitX=0;exitY=0.3333333333333333;exitDx=0;exitDy=0;exitPerimeter=0;" parent="1" source="vrcWFrz8zOzpY22sKMQk-1" edge="1">
                    <mxGeometry width="50" height="50" relative="1" as="geometry">
                        <mxPoint x="29.76" y="310" as="sourcePoint"/>
                        <mxPoint x="-100.00000000000021" y="418.72" as="targetPoint"/>
                    </mxGeometry>
                </mxCell>
            </root>
        </mxGraphModel>
    </diagram>
    <diagram id="7u0G9wZMzWg_SstKbLOB" name="Tracking system">
        <mxGraphModel dx="1132" dy="782" grid="1" gridSize="10" guides="1" tooltips="1" connect="1" arrows="1" fold="1" page="1" pageScale="1" pageWidth="850" pageHeight="1100" math="0" shadow="0">
            <root>
                <mxCell id="kgcWobcG7c6zOh4L2t50-0"/>
                <mxCell id="kgcWobcG7c6zOh4L2t50-1" parent="kgcWobcG7c6zOh4L2t50-0"/>
                <mxCell id="WCb7TgfAU8KzyYIF_BMm-0" value="Setting target" style="ellipse;whiteSpace=wrap;html=1;" parent="kgcWobcG7c6zOh4L2t50-1" vertex="1">
                    <mxGeometry x="370" y="400" width="120" height="80" as="geometry"/>
                </mxCell>
                <mxCell id="WCb7TgfAU8KzyYIF_BMm-1" value="send notification" style="ellipse;whiteSpace=wrap;html=1;" parent="kgcWobcG7c6zOh4L2t50-1" vertex="1">
                    <mxGeometry x="600" y="400" width="120" height="80" as="geometry"/>
                </mxCell>
                <mxCell id="WCb7TgfAU8KzyYIF_BMm-2" value="&amp;lt;&amp;lt;Extends&amp;gt;&amp;gt;" style="edgeStyle=none;html=1;dashed=1;entryX=1;entryY=0.5;entryDx=0;entryDy=0;exitX=0;exitY=0.5;exitDx=0;exitDy=0;" parent="kgcWobcG7c6zOh4L2t50-1" source="WCb7TgfAU8KzyYIF_BMm-1" target="WCb7TgfAU8KzyYIF_BMm-0" edge="1">
                    <mxGeometry relative="1" as="geometry">
                        <mxPoint x="400" y="300" as="sourcePoint"/>
                        <mxPoint x="300" y="260" as="targetPoint"/>
                        <Array as="points"/>
                    </mxGeometry>
                </mxCell>
                <mxCell id="eJyUwQvxyaW4PrybKVw1-0" value="Achievement" style="ellipse;whiteSpace=wrap;html=1;" parent="kgcWobcG7c6zOh4L2t50-1" vertex="1">
                    <mxGeometry x="370" y="510" width="120" height="80" as="geometry"/>
                </mxCell>
                <mxCell id="YiTf-bIR75i6WHzIw50n-0" value="Runner" style="shape=umlActor;verticalLabelPosition=bottom;verticalAlign=top;html=1;outlineConnect=0;" parent="kgcWobcG7c6zOh4L2t50-1" vertex="1">
                    <mxGeometry x="130" y="490" width="30" height="60" as="geometry"/>
                </mxCell>
                <mxCell id="YiTf-bIR75i6WHzIw50n-1" value="" style="endArrow=none;html=1;entryX=0;entryY=0.5;entryDx=0;entryDy=0;" parent="kgcWobcG7c6zOh4L2t50-1" source="YiTf-bIR75i6WHzIw50n-0" target="WCb7TgfAU8KzyYIF_BMm-0" edge="1">
                    <mxGeometry width="50" height="50" relative="1" as="geometry">
                        <mxPoint x="400" y="520" as="sourcePoint"/>
                        <mxPoint x="450" y="470" as="targetPoint"/>
                    </mxGeometry>
                </mxCell>
                <mxCell id="YiTf-bIR75i6WHzIw50n-2" value="" style="endArrow=none;html=1;entryX=0;entryY=0.5;entryDx=0;entryDy=0;" parent="kgcWobcG7c6zOh4L2t50-1" target="eJyUwQvxyaW4PrybKVw1-0" edge="1">
                    <mxGeometry width="50" height="50" relative="1" as="geometry">
                        <mxPoint x="160" y="520" as="sourcePoint"/>
                        <mxPoint x="380" y="450" as="targetPoint"/>
                    </mxGeometry>
                </mxCell>
                <mxCell id="YiTf-bIR75i6WHzIw50n-3" value="Record Tracking" style="ellipse;whiteSpace=wrap;html=1;" parent="kgcWobcG7c6zOh4L2t50-1" vertex="1">
                    <mxGeometry x="370" y="290" width="120" height="80" as="geometry"/>
                </mxCell>
                <mxCell id="YiTf-bIR75i6WHzIw50n-4" value="" style="endArrow=none;html=1;entryX=0;entryY=0.5;entryDx=0;entryDy=0;" parent="kgcWobcG7c6zOh4L2t50-1" source="YiTf-bIR75i6WHzIw50n-0" target="YiTf-bIR75i6WHzIw50n-3" edge="1">
                    <mxGeometry width="50" height="50" relative="1" as="geometry">
                        <mxPoint x="170" y="530" as="sourcePoint"/>
                        <mxPoint x="380" y="570" as="targetPoint"/>
                    </mxGeometry>
                </mxCell>
                <mxCell id="EOxUTzLQ0ATuU1jnOT4c-0" value="Sharing" style="ellipse;whiteSpace=wrap;html=1;" parent="kgcWobcG7c6zOh4L2t50-1" vertex="1">
                    <mxGeometry x="370" y="620" width="120" height="80" as="geometry"/>
                </mxCell>
                <mxCell id="EOxUTzLQ0ATuU1jnOT4c-2" value="Route suggestion" style="ellipse;whiteSpace=wrap;html=1;" parent="kgcWobcG7c6zOh4L2t50-1" vertex="1">
                    <mxGeometry x="600" y="290" width="120" height="80" as="geometry"/>
                </mxCell>
                <mxCell id="EOxUTzLQ0ATuU1jnOT4c-3" value="Cheat recognition" style="ellipse;whiteSpace=wrap;html=1;" parent="kgcWobcG7c6zOh4L2t50-1" vertex="1">
                    <mxGeometry x="600" y="180" width="120" height="80" as="geometry"/>
                </mxCell>
                <mxCell id="s6kiwQJb7BPf6xmi3a1d-0" value="&amp;lt;&amp;lt;Extends&amp;gt;&amp;gt;" style="edgeStyle=none;html=1;dashed=1;entryX=1;entryY=0.5;entryDx=0;entryDy=0;exitX=0;exitY=0.5;exitDx=0;exitDy=0;" parent="kgcWobcG7c6zOh4L2t50-1" source="EOxUTzLQ0ATuU1jnOT4c-2" target="YiTf-bIR75i6WHzIw50n-3" edge="1">
                    <mxGeometry relative="1" as="geometry">
                        <mxPoint x="610" y="450" as="sourcePoint"/>
                        <mxPoint x="500" y="450" as="targetPoint"/>
                        <Array as="points"/>
                    </mxGeometry>
                </mxCell>
                <mxCell id="s6kiwQJb7BPf6xmi3a1d-1" value="&amp;lt;&amp;lt;Include&amp;gt;&amp;gt;" style="edgeStyle=none;html=1;dashed=1;entryX=0;entryY=0.5;entryDx=0;entryDy=0;" parent="kgcWobcG7c6zOh4L2t50-1" source="YiTf-bIR75i6WHzIw50n-3" target="EOxUTzLQ0ATuU1jnOT4c-3" edge="1">
                    <mxGeometry relative="1" as="geometry">
                        <mxPoint x="500" y="190" as="sourcePoint"/>
                        <mxPoint x="500" y="340" as="targetPoint"/>
                        <Array as="points"/>
                    </mxGeometry>
                </mxCell>
                <mxCell id="s6kiwQJb7BPf6xmi3a1d-2" value="" style="endArrow=none;html=1;entryX=0;entryY=0.5;entryDx=0;entryDy=0;" parent="kgcWobcG7c6zOh4L2t50-1" target="EOxUTzLQ0ATuU1jnOT4c-0" edge="1">
                    <mxGeometry width="50" height="50" relative="1" as="geometry">
                        <mxPoint x="160" y="530" as="sourcePoint"/>
                        <mxPoint x="380" y="560" as="targetPoint"/>
                    </mxGeometry>
                </mxCell>
                <mxCell id="s6kiwQJb7BPf6xmi3a1d-3" value="To another social network" style="ellipse;whiteSpace=wrap;html=1;" parent="kgcWobcG7c6zOh4L2t50-1" vertex="1">
                    <mxGeometry x="600" y="620" width="120" height="80" as="geometry"/>
                </mxCell>
                <mxCell id="s6kiwQJb7BPf6xmi3a1d-6" value="&amp;lt;&amp;lt;Extends&amp;gt;&amp;gt;" style="edgeStyle=none;html=1;dashed=1;entryX=1;entryY=0.5;entryDx=0;entryDy=0;exitX=0;exitY=0.5;exitDx=0;exitDy=0;" parent="kgcWobcG7c6zOh4L2t50-1" source="s6kiwQJb7BPf6xmi3a1d-3" target="EOxUTzLQ0ATuU1jnOT4c-0" edge="1">
                    <mxGeometry relative="1" as="geometry">
                        <mxPoint x="610" y="450" as="sourcePoint"/>
                        <mxPoint x="500" y="450" as="targetPoint"/>
                        <Array as="points"/>
                    </mxGeometry>
                </mxCell>
                <mxCell id="_YocZsrKCQct7jP7NdTY-0" value="View trackings" style="ellipse;whiteSpace=wrap;html=1;" parent="kgcWobcG7c6zOh4L2t50-1" vertex="1">
                    <mxGeometry x="380" y="730" width="120" height="80" as="geometry"/>
                </mxCell>
                <mxCell id="_YocZsrKCQct7jP7NdTY-1" value="Delete tracking" style="ellipse;whiteSpace=wrap;html=1;" parent="kgcWobcG7c6zOh4L2t50-1" vertex="1">
                    <mxGeometry x="600" y="730" width="120" height="80" as="geometry"/>
                </mxCell>
                <mxCell id="_YocZsrKCQct7jP7NdTY-2" value="&amp;lt;&amp;lt;Extends&amp;gt;&amp;gt;" style="edgeStyle=none;html=1;dashed=1;entryX=1;entryY=0.5;entryDx=0;entryDy=0;exitX=0;exitY=0.5;exitDx=0;exitDy=0;" parent="kgcWobcG7c6zOh4L2t50-1" source="_YocZsrKCQct7jP7NdTY-1" target="_YocZsrKCQct7jP7NdTY-0" edge="1">
                    <mxGeometry relative="1" as="geometry">
                        <mxPoint x="610" y="670" as="sourcePoint"/>
                        <mxPoint x="510" y="670" as="targetPoint"/>
                        <Array as="points"/>
                    </mxGeometry>
                </mxCell>
                <mxCell id="_YocZsrKCQct7jP7NdTY-3" value="" style="endArrow=none;html=1;" parent="kgcWobcG7c6zOh4L2t50-1" source="YiTf-bIR75i6WHzIw50n-0" target="_YocZsrKCQct7jP7NdTY-0" edge="1">
                    <mxGeometry width="50" height="50" relative="1" as="geometry">
                        <mxPoint x="170" y="550" as="sourcePoint"/>
                        <mxPoint x="390" y="670" as="targetPoint"/>
                    </mxGeometry>
                </mxCell>
                <mxCell id="_YocZsrKCQct7jP7NdTY-4" value="Admin" style="shape=umlActor;verticalLabelPosition=bottom;verticalAlign=top;html=1;outlineConnect=0;" parent="kgcWobcG7c6zOh4L2t50-1" vertex="1">
                    <mxGeometry x="130" y="740" width="30" height="60" as="geometry"/>
                </mxCell>
                <mxCell id="_YocZsrKCQct7jP7NdTY-5" value="" style="endArrow=none;html=1;" parent="kgcWobcG7c6zOh4L2t50-1" source="_YocZsrKCQct7jP7NdTY-4" edge="1">
                    <mxGeometry width="50" height="50" relative="1" as="geometry">
                        <mxPoint x="180" y="560" as="sourcePoint"/>
                        <mxPoint x="380" y="774" as="targetPoint"/>
                    </mxGeometry>
                </mxCell>
                <mxCell id="_YocZsrKCQct7jP7NdTY-6" value="View Analysis" style="ellipse;whiteSpace=wrap;html=1;" parent="kgcWobcG7c6zOh4L2t50-1" vertex="1">
                    <mxGeometry x="380" y="840" width="120" height="80" as="geometry"/>
                </mxCell>
                <mxCell id="_YocZsrKCQct7jP7NdTY-7" value="Setting target" style="ellipse;whiteSpace=wrap;html=1;" parent="kgcWobcG7c6zOh4L2t50-1" vertex="1">
                    <mxGeometry x="600" y="840" width="120" height="80" as="geometry"/>
                </mxCell>
                <mxCell id="_YocZsrKCQct7jP7NdTY-8" value="Send Notification" style="ellipse;whiteSpace=wrap;html=1;" parent="kgcWobcG7c6zOh4L2t50-1" vertex="1">
                    <mxGeometry x="820" y="840" width="120" height="80" as="geometry"/>
                </mxCell>
                <mxCell id="_YocZsrKCQct7jP7NdTY-9" value="&amp;lt;&amp;lt;Extends&amp;gt;&amp;gt;" style="edgeStyle=none;html=1;dashed=1;entryX=1;entryY=0.5;entryDx=0;entryDy=0;exitX=0;exitY=0.5;exitDx=0;exitDy=0;" parent="kgcWobcG7c6zOh4L2t50-1" source="_YocZsrKCQct7jP7NdTY-7" target="_YocZsrKCQct7jP7NdTY-6" edge="1">
                    <mxGeometry relative="1" as="geometry">
                        <mxPoint x="610" y="450" as="sourcePoint"/>
                        <mxPoint x="500" y="450" as="targetPoint"/>
                        <Array as="points"/>
                    </mxGeometry>
                </mxCell>
                <mxCell id="_YocZsrKCQct7jP7NdTY-10" value="&amp;lt;&amp;lt;Extends&amp;gt;&amp;gt;" style="edgeStyle=none;html=1;dashed=1;exitX=0;exitY=0.5;exitDx=0;exitDy=0;" parent="kgcWobcG7c6zOh4L2t50-1" source="_YocZsrKCQct7jP7NdTY-8" edge="1">
                    <mxGeometry relative="1" as="geometry">
                        <mxPoint x="610" y="890" as="sourcePoint"/>
                        <mxPoint x="720" y="880" as="targetPoint"/>
                        <Array as="points"/>
                    </mxGeometry>
                </mxCell>
                <mxCell id="_YocZsrKCQct7jP7NdTY-11" value="" style="endArrow=none;html=1;entryX=0;entryY=0.5;entryDx=0;entryDy=0;" parent="kgcWobcG7c6zOh4L2t50-1" target="_YocZsrKCQct7jP7NdTY-6" edge="1">
                    <mxGeometry width="50" height="50" relative="1" as="geometry">
                        <mxPoint x="160" y="540" as="sourcePoint"/>
                        <mxPoint x="390" y="784" as="targetPoint"/>
                    </mxGeometry>
                </mxCell>
                <mxCell id="_YocZsrKCQct7jP7NdTY-12" value="" style="endArrow=none;html=1;entryX=0;entryY=0.5;entryDx=0;entryDy=0;" parent="kgcWobcG7c6zOh4L2t50-1" target="_YocZsrKCQct7jP7NdTY-6" edge="1">
                    <mxGeometry width="50" height="50" relative="1" as="geometry">
                        <mxPoint x="160" y="780" as="sourcePoint"/>
                        <mxPoint x="390" y="784" as="targetPoint"/>
                    </mxGeometry>
                </mxCell>
            </root>
        </mxGraphModel>
    </diagram>
    <diagram id="QF63DXfl2yvTR13mYau5" name="Groups and Friends">
        <mxGraphModel dx="1982" dy="1882" grid="1" gridSize="10" guides="1" tooltips="1" connect="1" arrows="1" fold="1" page="1" pageScale="1" pageWidth="850" pageHeight="1100" math="0" shadow="0">
            <root>
                <mxCell id="wS53Fnlplssi_y2h08Un-0"/>
                <mxCell id="wS53Fnlplssi_y2h08Un-1" parent="wS53Fnlplssi_y2h08Un-0"/>
                <mxCell id="1PWP0A1P7dzRTBhTVZWK-0" value="Actor" style="shape=umlActor;verticalLabelPosition=bottom;verticalAlign=top;html=1;outlineConnect=0;" parent="wS53Fnlplssi_y2h08Un-1" vertex="1">
                    <mxGeometry x="50" y="260" width="30" height="60" as="geometry"/>
                </mxCell>
                <mxCell id="1PWP0A1P7dzRTBhTVZWK-1" value="Manage group" style="ellipse;whiteSpace=wrap;html=1;" parent="wS53Fnlplssi_y2h08Un-1" vertex="1">
                    <mxGeometry x="340" y="180" width="120" height="80" as="geometry"/>
                </mxCell>
                <mxCell id="1PWP0A1P7dzRTBhTVZWK-2" value="View group chat" style="ellipse;whiteSpace=wrap;html=1;" parent="wS53Fnlplssi_y2h08Un-1" vertex="1">
                    <mxGeometry x="130" y="390" width="120" height="80" as="geometry"/>
                </mxCell>
                <mxCell id="1PWP0A1P7dzRTBhTVZWK-3" value="Create challenge" style="ellipse;whiteSpace=wrap;html=1;" parent="wS53Fnlplssi_y2h08Un-1" vertex="1">
                    <mxGeometry x="620" y="65" width="120" height="80" as="geometry"/>
                </mxCell>
                <mxCell id="1PWP0A1P7dzRTBhTVZWK-4" value="Add, Kick members" style="ellipse;whiteSpace=wrap;html=1;" parent="wS53Fnlplssi_y2h08Un-1" vertex="1">
                    <mxGeometry x="620" y="165" width="120" height="80" as="geometry"/>
                </mxCell>
                <mxCell id="1PWP0A1P7dzRTBhTVZWK-5" value="Delete group" style="ellipse;whiteSpace=wrap;html=1;" parent="wS53Fnlplssi_y2h08Un-1" vertex="1">
                    <mxGeometry x="620" y="265" width="120" height="80" as="geometry"/>
                </mxCell>
                <mxCell id="QkUqDoDB0qGXYt93EP92-0" value="Friend" style="ellipse;whiteSpace=wrap;html=1;" parent="wS53Fnlplssi_y2h08Un-1" vertex="1">
                    <mxGeometry x="-170" y="265" width="120" height="80" as="geometry"/>
                </mxCell>
                <mxCell id="QkUqDoDB0qGXYt93EP92-1" value="View List of Friend" style="ellipse;whiteSpace=wrap;html=1;" parent="wS53Fnlplssi_y2h08Un-1" vertex="1">
                    <mxGeometry x="-170" y="135" width="120" height="80" as="geometry"/>
                </mxCell>
                <mxCell id="QkUqDoDB0qGXYt93EP92-2" value="Add and delete friend" style="ellipse;whiteSpace=wrap;html=1;" parent="wS53Fnlplssi_y2h08Un-1" vertex="1">
                    <mxGeometry x="-350" y="265" width="120" height="80" as="geometry"/>
                </mxCell>
                <mxCell id="QkUqDoDB0qGXYt93EP92-3" value="View Friend's Profile&amp;nbsp;" style="ellipse;whiteSpace=wrap;html=1;" parent="wS53Fnlplssi_y2h08Un-1" vertex="1">
                    <mxGeometry x="-350" y="135" width="120" height="80" as="geometry"/>
                </mxCell>
                <mxCell id="QkUqDoDB0qGXYt93EP92-4" value="&amp;lt;&amp;lt;Include&amp;gt;&amp;gt;" style="edgeStyle=none;html=1;dashed=1;entryX=0.5;entryY=1;entryDx=0;entryDy=0;" parent="wS53Fnlplssi_y2h08Un-1" target="QkUqDoDB0qGXYt93EP92-1" edge="1">
                    <mxGeometry relative="1" as="geometry">
                        <mxPoint x="-110" y="266" as="sourcePoint"/>
                        <mxPoint x="-32.432415778315715" y="243.9750712714782" as="targetPoint"/>
                    </mxGeometry>
                </mxCell>
                <mxCell id="QkUqDoDB0qGXYt93EP92-5" value="&amp;lt;&amp;lt;Extends&amp;gt;&amp;gt;" style="edgeStyle=none;html=1;dashed=1;entryX=1;entryY=0.5;entryDx=0;entryDy=0;" parent="wS53Fnlplssi_y2h08Un-1" edge="1">
                    <mxGeometry relative="1" as="geometry">
                        <mxPoint x="-220" y="65" as="sourcePoint"/>
                        <mxPoint x="-109.99999999999955" y="35" as="targetPoint"/>
                    </mxGeometry>
                </mxCell>
                <mxCell id="QkUqDoDB0qGXYt93EP92-6" value="&amp;lt;&amp;lt;Extends&amp;gt;&amp;gt;" style="edgeStyle=none;html=1;dashed=1;entryX=0;entryY=0.5;entryDx=0;entryDy=0;" parent="wS53Fnlplssi_y2h08Un-1" target="QkUqDoDB0qGXYt93EP92-0" edge="1">
                    <mxGeometry relative="1" as="geometry">
                        <mxPoint x="-230" y="305" as="sourcePoint"/>
                        <mxPoint x="-119.99999999999977" y="275" as="targetPoint"/>
                    </mxGeometry>
                </mxCell>
                <mxCell id="QkUqDoDB0qGXYt93EP92-7" value="&amp;lt;&amp;lt;Extends&amp;gt;&amp;gt;" style="edgeStyle=none;html=1;dashed=1;entryX=0;entryY=0;entryDx=0;entryDy=0;" parent="wS53Fnlplssi_y2h08Un-1" target="QkUqDoDB0qGXYt93EP92-0" edge="1">
                    <mxGeometry relative="1" as="geometry">
                        <mxPoint x="-250" y="205" as="sourcePoint"/>
                        <mxPoint x="-139.99999999999977" y="175" as="targetPoint"/>
                    </mxGeometry>
                </mxCell>
                <mxCell id="QkUqDoDB0qGXYt93EP92-8" value="Chatting with some one" style="ellipse;whiteSpace=wrap;html=1;" parent="wS53Fnlplssi_y2h08Un-1" vertex="1">
                    <mxGeometry x="-350" y="365" width="120" height="80" as="geometry"/>
                </mxCell>
                <mxCell id="QkUqDoDB0qGXYt93EP92-9" value="&amp;lt;&amp;lt;Extends&amp;gt;&amp;gt;" style="edgeStyle=none;html=1;dashed=1;entryX=0.5;entryY=1;entryDx=0;entryDy=0;" parent="wS53Fnlplssi_y2h08Un-1" target="QkUqDoDB0qGXYt93EP92-0" edge="1">
                    <mxGeometry relative="1" as="geometry">
                        <mxPoint x="-240" y="385" as="sourcePoint"/>
                        <mxPoint x="-129.99999999999977" y="355" as="targetPoint"/>
                    </mxGeometry>
                </mxCell>
                <mxCell id="eh8WwUGj7tBFKhj38aWH-0" value="Create group" style="ellipse;whiteSpace=wrap;html=1;" parent="wS53Fnlplssi_y2h08Un-1" vertex="1">
                    <mxGeometry x="130" y="190" width="120" height="80" as="geometry"/>
                </mxCell>
                <mxCell id="eh8WwUGj7tBFKhj38aWH-1" value="Request joining group" style="ellipse;whiteSpace=wrap;html=1;" parent="wS53Fnlplssi_y2h08Un-1" vertex="1">
                    <mxGeometry x="130" y="285" width="120" height="80" as="geometry"/>
                </mxCell>
                <mxCell id="CjRiBXMlccZHVlnF9zdW-0" value="" style="endArrow=none;html=1;entryX=1.002;entryY=0.359;entryDx=0;entryDy=0;entryPerimeter=0;" parent="wS53Fnlplssi_y2h08Un-1" edge="1">
                    <mxGeometry width="50" height="50" relative="1" as="geometry">
                        <mxPoint x="-80.24000000000001" y="-110" as="sourcePoint"/>
                        <mxPoint x="-210" y="-1.2799999999999727" as="targetPoint"/>
                    </mxGeometry>
                </mxCell>
                <mxCell id="CjRiBXMlccZHVlnF9zdW-1" value="" style="endArrow=none;html=1;entryX=1.002;entryY=0.359;entryDx=0;entryDy=0;entryPerimeter=0;exitX=0.5;exitY=0.5;exitDx=0;exitDy=0;exitPerimeter=0;" parent="wS53Fnlplssi_y2h08Un-1" source="1PWP0A1P7dzRTBhTVZWK-0" edge="1">
                    <mxGeometry width="50" height="50" relative="1" as="geometry">
                        <mxPoint x="80" y="200" as="sourcePoint"/>
                        <mxPoint x="-49.75999999999999" y="308.72" as="targetPoint"/>
                    </mxGeometry>
                </mxCell>
                <mxCell id="eh8WwUGj7tBFKhj38aWH-2" value="" style="endArrow=none;html=1;entryX=0;entryY=0.5;entryDx=0;entryDy=0;exitX=0.5;exitY=0.5;exitDx=0;exitDy=0;exitPerimeter=0;" parent="wS53Fnlplssi_y2h08Un-1" source="1PWP0A1P7dzRTBhTVZWK-0" target="eh8WwUGj7tBFKhj38aWH-0" edge="1">
                    <mxGeometry width="50" height="50" relative="1" as="geometry">
                        <mxPoint x="75" y="300" as="sourcePoint"/>
                        <mxPoint x="-39.75999999999999" y="318.72" as="targetPoint"/>
                    </mxGeometry>
                </mxCell>
                <mxCell id="eh8WwUGj7tBFKhj38aWH-4" value="" style="endArrow=none;html=1;entryX=0;entryY=0.5;entryDx=0;entryDy=0;exitX=0.5;exitY=0.5;exitDx=0;exitDy=0;exitPerimeter=0;" parent="wS53Fnlplssi_y2h08Un-1" source="1PWP0A1P7dzRTBhTVZWK-0" target="eh8WwUGj7tBFKhj38aWH-1" edge="1">
                    <mxGeometry width="50" height="50" relative="1" as="geometry">
                        <mxPoint x="75" y="300" as="sourcePoint"/>
                        <mxPoint x="170" y="190" as="targetPoint"/>
                    </mxGeometry>
                </mxCell>
                <mxCell id="A8B71HSCDMv_0Rv2MI_v-1" value="Chatting with some one" style="ellipse;whiteSpace=wrap;html=1;" parent="wS53Fnlplssi_y2h08Un-1" vertex="1">
                    <mxGeometry x="-485" y="470" width="120" height="80" as="geometry"/>
                </mxCell>
                <mxCell id="A8B71HSCDMv_0Rv2MI_v-2" value="Display message" style="ellipse;whiteSpace=wrap;html=1;" parent="wS53Fnlplssi_y2h08Un-1" vertex="1">
                    <mxGeometry x="-510" y="370" width="120" height="80" as="geometry"/>
                </mxCell>
                <mxCell id="A8B71HSCDMv_0Rv2MI_v-3" value="&amp;lt;&amp;lt;Include&amp;gt;&amp;gt;" style="edgeStyle=none;html=1;dashed=1;entryX=0.5;entryY=1;entryDx=0;entryDy=0;" parent="wS53Fnlplssi_y2h08Un-1" edge="1">
                    <mxGeometry relative="1" as="geometry">
                        <mxPoint x="-390" y="160" as="sourcePoint"/>
                        <mxPoint x="-425" y="119.99999999999977" as="targetPoint"/>
                    </mxGeometry>
                </mxCell>
                <mxCell id="A8B71HSCDMv_0Rv2MI_v-4" value="&amp;lt;&amp;lt;Include&amp;gt;&amp;gt;" style="edgeStyle=none;html=1;dashed=1;" parent="wS53Fnlplssi_y2h08Un-1" edge="1">
                    <mxGeometry relative="1" as="geometry">
                        <mxPoint x="-350" y="410" as="sourcePoint"/>
                        <mxPoint x="-390" y="400" as="targetPoint"/>
                    </mxGeometry>
                </mxCell>
                <mxCell id="eh8WwUGj7tBFKhj38aWH-5" value="&amp;lt;&amp;lt;Extends&amp;gt;&amp;gt;" style="edgeStyle=none;html=1;dashed=1;entryX=0;entryY=0.5;entryDx=0;entryDy=0;exitX=1;exitY=0.5;exitDx=0;exitDy=0;" parent="wS53Fnlplssi_y2h08Un-1" source="1PWP0A1P7dzRTBhTVZWK-1" target="1PWP0A1P7dzRTBhTVZWK-5" edge="1">
                    <mxGeometry relative="1" as="geometry">
                        <mxPoint x="240" y="110" as="sourcePoint"/>
                        <mxPoint x="337.57359312880726" y="181.71572875253833" as="targetPoint"/>
                    </mxGeometry>
                </mxCell>
                <mxCell id="eh8WwUGj7tBFKhj38aWH-6" value="&amp;lt;&amp;lt;Extends&amp;gt;&amp;gt;" style="edgeStyle=none;html=1;dashed=1;entryX=0;entryY=0.5;entryDx=0;entryDy=0;exitX=1;exitY=0.5;exitDx=0;exitDy=0;" parent="wS53Fnlplssi_y2h08Un-1" source="1PWP0A1P7dzRTBhTVZWK-1" target="1PWP0A1P7dzRTBhTVZWK-4" edge="1">
                    <mxGeometry relative="1" as="geometry">
                        <mxPoint x="250" y="110" as="sourcePoint"/>
                        <mxPoint x="345" y="280" as="targetPoint"/>
                    </mxGeometry>
                </mxCell>
                <mxCell id="eh8WwUGj7tBFKhj38aWH-7" value="&amp;lt;&amp;lt;Extends&amp;gt;&amp;gt;" style="edgeStyle=none;html=1;dashed=1;entryX=0;entryY=0.5;entryDx=0;entryDy=0;exitX=1;exitY=0.5;exitDx=0;exitDy=0;" parent="wS53Fnlplssi_y2h08Un-1" source="1PWP0A1P7dzRTBhTVZWK-1" target="1PWP0A1P7dzRTBhTVZWK-3" edge="1">
                    <mxGeometry relative="1" as="geometry">
                        <mxPoint x="260" y="120" as="sourcePoint"/>
                        <mxPoint x="345" y="180" as="targetPoint"/>
                    </mxGeometry>
                </mxCell>
                <mxCell id="A8B71HSCDMv_0Rv2MI_v-5" value="&amp;lt;&amp;lt;Extends&amp;gt;&amp;gt;" style="edgeStyle=none;html=1;dashed=1;entryX=0.5;entryY=1;entryDx=0;entryDy=0;" parent="wS53Fnlplssi_y2h08Un-1" target="QkUqDoDB0qGXYt93EP92-8" edge="1">
                    <mxGeometry relative="1" as="geometry">
                        <mxPoint x="-370" y="489.9999999999998" as="sourcePoint"/>
                        <mxPoint x="-240" y="449.9999999999998" as="targetPoint"/>
                    </mxGeometry>
                </mxCell>
                <mxCell id="eh8WwUGj7tBFKhj38aWH-9" value="&amp;lt;&amp;lt;Include&amp;gt;&amp;gt;" style="edgeStyle=none;html=1;dashed=1;entryX=0;entryY=0.5;entryDx=0;entryDy=0;exitX=1;exitY=0.5;exitDx=0;exitDy=0;" parent="wS53Fnlplssi_y2h08Un-1" source="eh8WwUGj7tBFKhj38aWH-0" target="1PWP0A1P7dzRTBhTVZWK-1" edge="1">
                    <mxGeometry relative="1" as="geometry">
                        <mxPoint x="210" y="214" as="sourcePoint"/>
                        <mxPoint x="-10" y="214" as="targetPoint"/>
                    </mxGeometry>
                </mxCell>
                <mxCell id="eh8WwUGj7tBFKhj38aWH-10" value="" style="endArrow=none;html=1;entryX=0;entryY=0.5;entryDx=0;entryDy=0;" parent="wS53Fnlplssi_y2h08Un-1" target="1PWP0A1P7dzRTBhTVZWK-2" edge="1">
                    <mxGeometry width="50" height="50" relative="1" as="geometry">
                        <mxPoint x="65" y="290" as="sourcePoint"/>
                        <mxPoint x="170" y="450" as="targetPoint"/>
                    </mxGeometry>
                </mxCell>
            </root>
        </mxGraphModel>
    </diagram>
    <diagram id="dovIFvzWjn6MaDX1_BDI" name="Events">
        <mxGraphModel dx="1132" dy="782" grid="1" gridSize="10" guides="1" tooltips="1" connect="1" arrows="1" fold="1" page="1" pageScale="1" pageWidth="850" pageHeight="1100" math="0" shadow="0">
            <root>
                <mxCell id="JNd0OGGylX73FGsNHs2k-0"/>
                <mxCell id="JNd0OGGylX73FGsNHs2k-1" parent="JNd0OGGylX73FGsNHs2k-0"/>
                <mxCell id="VBfXV2J-0m94fLGsGxz6-0" value="Actor" style="shape=umlActor;verticalLabelPosition=bottom;verticalAlign=top;html=1;outlineConnect=0;" parent="JNd0OGGylX73FGsNHs2k-1" vertex="1">
                    <mxGeometry x="110" y="280" width="30" height="60" as="geometry"/>
                </mxCell>
                <mxCell id="VBfXV2J-0m94fLGsGxz6-1" value="Create Challenge" style="ellipse;whiteSpace=wrap;html=1;" parent="JNd0OGGylX73FGsNHs2k-1" vertex="1">
                    <mxGeometry x="210" y="160" width="120" height="80" as="geometry"/>
                </mxCell>
                <mxCell id="VBfXV2J-0m94fLGsGxz6-3" value="Setting for challenge" style="ellipse;whiteSpace=wrap;html=1;" parent="JNd0OGGylX73FGsNHs2k-1" vertex="1">
                    <mxGeometry x="490" y="160" width="120" height="80" as="geometry"/>
                </mxCell>
                <mxCell id="VBfXV2J-0m94fLGsGxz6-4" value="Manage challenge" style="ellipse;whiteSpace=wrap;html=1;" parent="JNd0OGGylX73FGsNHs2k-1" vertex="1">
                    <mxGeometry x="210" y="370" width="120" height="80" as="geometry"/>
                </mxCell>
                <mxCell id="VBfXV2J-0m94fLGsGxz6-5" value="Change name, pass of challenge" style="ellipse;whiteSpace=wrap;html=1;" parent="JNd0OGGylX73FGsNHs2k-1" vertex="1">
                    <mxGeometry x="490" y="250" width="120" height="80" as="geometry"/>
                </mxCell>
                <mxCell id="PcD7V__Hh_Ip44qmeCmf-0" value="Set date&lt;span style=&quot;color: rgba(0 , 0 , 0 , 0) ; font-family: monospace ; font-size: 0px&quot;&gt;%3CmxGraphModel%3E%3Croot%3E%3CmxCell%20id%3D%220%22%2F%3E%3CmxCell%20id%3D%221%22%20parent%3D%220%22%2F%3E%3CmxCell%20id%3D%222%22%20value%3D%22Change%20name%2C%20pass%20of%20challenge%22%20style%3D%22ellipse%3BwhiteSpace%3Dwrap%3Bhtml%3D1%3B%22%20vertex%3D%221%22%20parent%3D%221%22%3E%3CmxGeometry%20x%3D%22490%22%20y%3D%22250%22%20width%3D%22120%22%20height%3D%2280%22%20as%3D%22geometry%22%2F%3E%3C%2FmxCell%3E%3C%2Froot%3E%3C%2FmxGraphModel%3E&lt;/span&gt;" style="ellipse;whiteSpace=wrap;html=1;" parent="JNd0OGGylX73FGsNHs2k-1" vertex="1">
                    <mxGeometry x="490" y="350" width="120" height="80" as="geometry"/>
                </mxCell>
                <mxCell id="PcD7V__Hh_Ip44qmeCmf-1" value="Set privacy" style="ellipse;whiteSpace=wrap;html=1;" parent="JNd0OGGylX73FGsNHs2k-1" vertex="1">
                    <mxGeometry x="480" y="450" width="120" height="80" as="geometry"/>
                </mxCell>
                <mxCell id="PcD7V__Hh_Ip44qmeCmf-2" value="Add, Kick member" style="ellipse;whiteSpace=wrap;html=1;" parent="JNd0OGGylX73FGsNHs2k-1" vertex="1">
                    <mxGeometry x="480" y="550" width="120" height="80" as="geometry"/>
                </mxCell>
                <mxCell id="PcD7V__Hh_Ip44qmeCmf-3" value="" style="endArrow=none;html=1;entryX=0;entryY=0.5;entryDx=0;entryDy=0;exitX=1;exitY=0.3333333333333333;exitDx=0;exitDy=0;exitPerimeter=0;" parent="JNd0OGGylX73FGsNHs2k-1" source="VBfXV2J-0m94fLGsGxz6-0" target="VBfXV2J-0m94fLGsGxz6-1" edge="1">
                    <mxGeometry width="50" height="50" relative="1" as="geometry">
                        <mxPoint x="260" y="400" as="sourcePoint"/>
                        <mxPoint x="310" y="350" as="targetPoint"/>
                    </mxGeometry>
                </mxCell>
                <mxCell id="PcD7V__Hh_Ip44qmeCmf-5" value="" style="endArrow=none;html=1;entryX=0;entryY=0.5;entryDx=0;entryDy=0;exitX=1;exitY=0.3333333333333333;exitDx=0;exitDy=0;exitPerimeter=0;" parent="JNd0OGGylX73FGsNHs2k-1" source="VBfXV2J-0m94fLGsGxz6-0" target="VBfXV2J-0m94fLGsGxz6-4" edge="1">
                    <mxGeometry width="50" height="50" relative="1" as="geometry">
                        <mxPoint x="150" y="340" as="sourcePoint"/>
                        <mxPoint x="270" y="180" as="targetPoint"/>
                    </mxGeometry>
                </mxCell>
                <mxCell id="cU-m7bQaNNKFFk63Tnfn-0" value="&amp;lt;&amp;lt;Include&amp;gt;&amp;gt;" style="edgeStyle=none;html=1;dashed=1;entryX=0;entryY=0.5;entryDx=0;entryDy=0;exitX=1;exitY=0.5;exitDx=0;exitDy=0;" parent="JNd0OGGylX73FGsNHs2k-1" source="VBfXV2J-0m94fLGsGxz6-1" target="VBfXV2J-0m94fLGsGxz6-3" edge="1">
                    <mxGeometry relative="1" as="geometry">
                        <mxPoint x="-47.570249345861384" y="319.99506233646525" as="sourcePoint"/>
                        <mxPoint x="39.99758422168429" y="297.9550712714781" as="targetPoint"/>
                    </mxGeometry>
                </mxCell>
                <mxCell id="cU-m7bQaNNKFFk63Tnfn-1" value="&amp;lt;&amp;lt;Include&amp;gt;&amp;gt;" style="edgeStyle=none;html=1;dashed=1;entryX=0;entryY=0.5;entryDx=0;entryDy=0;exitX=1;exitY=0.5;exitDx=0;exitDy=0;" parent="JNd0OGGylX73FGsNHs2k-1" source="VBfXV2J-0m94fLGsGxz6-4" target="PcD7V__Hh_Ip44qmeCmf-2" edge="1">
                    <mxGeometry relative="1" as="geometry">
                        <mxPoint x="350" y="210" as="sourcePoint"/>
                        <mxPoint x="450" y="210" as="targetPoint"/>
                    </mxGeometry>
                </mxCell>
                <mxCell id="cU-m7bQaNNKFFk63Tnfn-3" value="&amp;lt;&amp;lt;Include&amp;gt;&amp;gt;" style="edgeStyle=none;html=1;dashed=1;entryX=0;entryY=0.5;entryDx=0;entryDy=0;exitX=1;exitY=0.5;exitDx=0;exitDy=0;" parent="JNd0OGGylX73FGsNHs2k-1" source="VBfXV2J-0m94fLGsGxz6-4" target="PcD7V__Hh_Ip44qmeCmf-1" edge="1">
                    <mxGeometry relative="1" as="geometry">
                        <mxPoint x="340" y="420" as="sourcePoint"/>
                        <mxPoint x="500" y="610" as="targetPoint"/>
                    </mxGeometry>
                </mxCell>
                <mxCell id="cU-m7bQaNNKFFk63Tnfn-4" value="" style="edgeStyle=none;html=1;dashed=1;entryX=0;entryY=0.5;entryDx=0;entryDy=0;exitX=1;exitY=0.5;exitDx=0;exitDy=0;" parent="JNd0OGGylX73FGsNHs2k-1" source="VBfXV2J-0m94fLGsGxz6-4" target="PcD7V__Hh_Ip44qmeCmf-0" edge="1">
                    <mxGeometry relative="1" as="geometry">
                        <mxPoint x="340" y="420" as="sourcePoint"/>
                        <mxPoint x="500" y="510" as="targetPoint"/>
                    </mxGeometry>
                </mxCell>
                <mxCell id="cU-m7bQaNNKFFk63Tnfn-5" value="" style="edgeStyle=none;html=1;dashed=1;exitX=1;exitY=0.5;exitDx=0;exitDy=0;" parent="JNd0OGGylX73FGsNHs2k-1" source="VBfXV2J-0m94fLGsGxz6-4" edge="1">
                    <mxGeometry relative="1" as="geometry">
                        <mxPoint x="330" y="310" as="sourcePoint"/>
                        <mxPoint x="490" y="290" as="targetPoint"/>
                    </mxGeometry>
                </mxCell>
            </root>
        </mxGraphModel>
    </diagram>
</mxfile>